<mxfile host="Electron" agent="Mozilla/5.0 (Windows NT 10.0; Win64; x64) AppleWebKit/537.36 (KHTML, like Gecko) draw.io/28.1.2 Chrome/138.0.7204.243 Electron/37.4.0 Safari/537.36" version="28.1.2">
  <diagram name="Page-1" id="q3ef1yPibIpOH0HQpK9H">
    <mxGraphModel dx="786" dy="516" grid="1" gridSize="10" guides="1" tooltips="1" connect="1" arrows="1" fold="1" page="1" pageScale="1" pageWidth="850" pageHeight="1100" math="0" shadow="0">
      <root>
        <mxCell id="0" />
        <mxCell id="1" parent="0" />
        <mxCell id="-9y2TZHUYbNgIjsQiLxk-1" value="" style="rounded=0;whiteSpace=wrap;html=1;" parent="1" vertex="1">
          <mxGeometry x="40" y="40" width="130" height="380" as="geometry" />
        </mxCell>
        <mxCell id="-9y2TZHUYbNgIjsQiLxk-2" value="Source" style="rounded=0;whiteSpace=wrap;html=1;strokeColor=none;" parent="1" vertex="1">
          <mxGeometry x="60" y="20" width="80" height="40" as="geometry" />
        </mxCell>
        <mxCell id="-9y2TZHUYbNgIjsQiLxk-3" value="" style="rounded=0;whiteSpace=wrap;html=1;" parent="1" vertex="1">
          <mxGeometry x="230" y="40" width="430" height="380" as="geometry" />
        </mxCell>
        <mxCell id="-9y2TZHUYbNgIjsQiLxk-4" value="Data Warehouse" style="rounded=0;whiteSpace=wrap;html=1;strokeColor=none;" parent="1" vertex="1">
          <mxGeometry x="330" y="20" width="80" height="40" as="geometry" />
        </mxCell>
        <mxCell id="-9y2TZHUYbNgIjsQiLxk-5" value="&lt;div&gt;&lt;br&gt;&lt;/div&gt;&lt;div&gt;&lt;br&gt;&lt;/div&gt;&lt;div&gt;&lt;br&gt;&lt;/div&gt;&lt;div&gt;&lt;br&gt;&lt;/div&gt;Ad-Hoc SQL&amp;nbsp;&lt;div&gt;Queries&lt;/div&gt;" style="rounded=0;whiteSpace=wrap;html=1;" parent="1" vertex="1">
          <mxGeometry x="680" y="40" width="120" height="380" as="geometry" />
        </mxCell>
        <mxCell id="-9y2TZHUYbNgIjsQiLxk-6" value="Consumers" style="rounded=0;whiteSpace=wrap;html=1;strokeColor=none;" parent="1" vertex="1">
          <mxGeometry x="698" y="20" width="80" height="40" as="geometry" />
        </mxCell>
        <mxCell id="-9y2TZHUYbNgIjsQiLxk-7" value="&lt;b&gt;Bronze Layer&lt;/b&gt;" style="rounded=0;whiteSpace=wrap;html=1;fillColor=#ffe6cc;strokeColor=#d79b00;" parent="1" vertex="1">
          <mxGeometry x="243" y="60" width="110" height="40" as="geometry" />
        </mxCell>
        <mxCell id="-9y2TZHUYbNgIjsQiLxk-8" value="" style="rounded=0;whiteSpace=wrap;html=1;fillColor=none;strokeColor=#d79b00;" parent="1" vertex="1">
          <mxGeometry x="244" y="110" width="110" height="300" as="geometry" />
        </mxCell>
        <mxCell id="-9y2TZHUYbNgIjsQiLxk-9" value="&lt;b&gt;Silver Layer&lt;/b&gt;" style="rounded=0;whiteSpace=wrap;html=1;fillColor=#f5f5f5;fontColor=#333333;strokeColor=#666666;" parent="1" vertex="1">
          <mxGeometry x="394" y="60" width="100" height="40" as="geometry" />
        </mxCell>
        <mxCell id="-9y2TZHUYbNgIjsQiLxk-10" value="" style="rounded=0;whiteSpace=wrap;html=1;" parent="1" vertex="1">
          <mxGeometry x="392" y="110" width="100" height="300" as="geometry" />
        </mxCell>
        <mxCell id="-9y2TZHUYbNgIjsQiLxk-11" value="&lt;b&gt;Gold Layer&lt;/b&gt;" style="rounded=0;whiteSpace=wrap;html=1;fillColor=#fff2cc;strokeColor=#d6b656;" parent="1" vertex="1">
          <mxGeometry x="532" y="60" width="100" height="40" as="geometry" />
        </mxCell>
        <mxCell id="-9y2TZHUYbNgIjsQiLxk-12" value="" style="rounded=0;whiteSpace=wrap;html=1;" parent="1" vertex="1">
          <mxGeometry x="533" y="110" width="100" height="300" as="geometry" />
        </mxCell>
        <mxCell id="-9y2TZHUYbNgIjsQiLxk-13" value="CRM" style="image;aspect=fixed;html=1;points=[];align=center;fontSize=12;image=img/lib/azure2/general/Folder_Blank.svg;" parent="1" vertex="1">
          <mxGeometry x="67" y="120" width="61.61" height="50" as="geometry" />
        </mxCell>
        <mxCell id="-9y2TZHUYbNgIjsQiLxk-14" value="" style="verticalLabelPosition=bottom;html=1;verticalAlign=top;align=center;strokeColor=none;fillColor=#00BEF2;shape=mxgraph.azure.file_2;pointerEvents=1;" parent="1" vertex="1">
          <mxGeometry x="114" y="160" width="27" height="25" as="geometry" />
        </mxCell>
        <mxCell id="-9y2TZHUYbNgIjsQiLxk-16" value="ERP" style="image;aspect=fixed;html=1;points=[];align=center;fontSize=12;image=img/lib/azure2/general/Folder_Blank.svg;" parent="1" vertex="1">
          <mxGeometry x="67" y="240" width="61.61" height="50" as="geometry" />
        </mxCell>
        <mxCell id="-9y2TZHUYbNgIjsQiLxk-17" value="" style="verticalLabelPosition=bottom;html=1;verticalAlign=top;align=center;strokeColor=none;fillColor=#00BEF2;shape=mxgraph.azure.file_2;pointerEvents=1;" parent="1" vertex="1">
          <mxGeometry x="121" y="280" width="27" height="25" as="geometry" />
        </mxCell>
        <mxCell id="-9y2TZHUYbNgIjsQiLxk-18" value="" style="strokeWidth=2;html=1;shape=mxgraph.flowchart.database;whiteSpace=wrap;fillColor=#ffe6cc;strokeColor=#d79b00;" parent="1" vertex="1">
          <mxGeometry x="268" y="190" width="60" height="60" as="geometry" />
        </mxCell>
        <mxCell id="-9y2TZHUYbNgIjsQiLxk-19" value="" style="strokeWidth=2;html=1;shape=mxgraph.flowchart.database;whiteSpace=wrap;fillColor=#f5f5f5;fontColor=#333333;strokeColor=#666666;" parent="1" vertex="1">
          <mxGeometry x="416" y="190" width="60" height="60" as="geometry" />
        </mxCell>
        <mxCell id="-9y2TZHUYbNgIjsQiLxk-20" value="" style="strokeWidth=2;html=1;shape=mxgraph.flowchart.database;whiteSpace=wrap;fillColor=#fff2cc;strokeColor=#d6b656;" parent="1" vertex="1">
          <mxGeometry x="554" y="190" width="60" height="60" as="geometry" />
        </mxCell>
        <mxCell id="-9y2TZHUYbNgIjsQiLxk-25" value="" style="html=1;shadow=0;dashed=0;align=center;verticalAlign=middle;shape=mxgraph.arrows2.arrow;dy=0.6;dx=40;notch=0;" parent="1" vertex="1">
          <mxGeometry x="163" y="205" width="80" height="30" as="geometry" />
        </mxCell>
        <mxCell id="-9y2TZHUYbNgIjsQiLxk-26" value="" style="html=1;shadow=0;dashed=0;align=center;verticalAlign=middle;shape=mxgraph.arrows2.arrow;dy=0.6;dx=40;notch=0;" parent="1" vertex="1">
          <mxGeometry x="336" y="205" width="64" height="30" as="geometry" />
        </mxCell>
        <mxCell id="-9y2TZHUYbNgIjsQiLxk-27" value="" style="html=1;shadow=0;dashed=0;align=center;verticalAlign=middle;shape=mxgraph.arrows2.arrow;dy=0.71;dx=20.67;notch=0;" parent="1" vertex="1">
          <mxGeometry x="480" y="205" width="64" height="30" as="geometry" />
        </mxCell>
        <mxCell id="-9y2TZHUYbNgIjsQiLxk-28" value="Raw Data" style="text;html=1;align=center;verticalAlign=middle;whiteSpace=wrap;rounded=0;" parent="1" vertex="1">
          <mxGeometry x="268" y="260" width="60" height="30" as="geometry" />
        </mxCell>
        <mxCell id="-9y2TZHUYbNgIjsQiLxk-29" value="&lt;div&gt;&lt;br&gt;&lt;/div&gt;Cleaned, Standardized Data" style="text;html=1;align=center;verticalAlign=middle;whiteSpace=wrap;rounded=0;" parent="1" vertex="1">
          <mxGeometry x="410" y="260" width="60" height="30" as="geometry" />
        </mxCell>
        <mxCell id="-9y2TZHUYbNgIjsQiLxk-30" value="Business-Ready Data" style="text;html=1;align=center;verticalAlign=middle;whiteSpace=wrap;rounded=0;" parent="1" vertex="1">
          <mxGeometry x="552" y="260" width="60" height="30" as="geometry" />
        </mxCell>
        <mxCell id="-9y2TZHUYbNgIjsQiLxk-32" value="" style="line;strokeWidth=2;html=1;" parent="1" vertex="1">
          <mxGeometry x="48" y="340" width="102" height="10" as="geometry" />
        </mxCell>
        <mxCell id="-9y2TZHUYbNgIjsQiLxk-33" value="" style="line;strokeWidth=2;html=1;" parent="1" vertex="1">
          <mxGeometry x="248" y="330" width="102" height="10" as="geometry" />
        </mxCell>
        <mxCell id="-9y2TZHUYbNgIjsQiLxk-34" value="" style="line;strokeWidth=2;html=1;" parent="1" vertex="1">
          <mxGeometry x="399" y="330" width="81" height="10" as="geometry" />
        </mxCell>
        <mxCell id="-9y2TZHUYbNgIjsQiLxk-35" value="" style="line;strokeWidth=2;html=1;" parent="1" vertex="1">
          <mxGeometry x="544" y="330" width="76" height="10" as="geometry" />
        </mxCell>
        <mxCell id="-9y2TZHUYbNgIjsQiLxk-36" value="&lt;font style=&quot;font-size: 8px;&quot;&gt;Object Type: CSV Files&lt;/font&gt;&lt;div&gt;&lt;br&gt;&lt;/div&gt;" style="text;html=1;align=center;verticalAlign=middle;whiteSpace=wrap;rounded=0;" parent="1" vertex="1">
          <mxGeometry x="50" y="360" width="98" height="30" as="geometry" />
        </mxCell>
        <mxCell id="-9y2TZHUYbNgIjsQiLxk-37" value="&lt;font style=&quot;font-size: 8px;&quot;&gt;Interface: Files in Folders&lt;/font&gt;&lt;div&gt;&lt;br&gt;&lt;/div&gt;" style="text;html=1;align=center;verticalAlign=middle;whiteSpace=wrap;rounded=0;" parent="1" vertex="1">
          <mxGeometry x="50" y="380" width="98" height="30" as="geometry" />
        </mxCell>
        <mxCell id="-9y2TZHUYbNgIjsQiLxk-38" value="&lt;font style=&quot;font-size: 8px;&quot;&gt;Object Type: Table&lt;/font&gt;&lt;div&gt;&lt;br&gt;&lt;/div&gt;" style="text;html=1;align=center;verticalAlign=middle;whiteSpace=wrap;rounded=0;" parent="1" vertex="1">
          <mxGeometry x="252" y="350" width="98" height="20" as="geometry" />
        </mxCell>
        <mxCell id="-9y2TZHUYbNgIjsQiLxk-39" value="&lt;font style=&quot;font-size: 8px;&quot;&gt;Load: Batch / Full&lt;/font&gt;&lt;div&gt;&lt;br&gt;&lt;/div&gt;" style="text;html=1;align=center;verticalAlign=middle;whiteSpace=wrap;rounded=0;" parent="1" vertex="1">
          <mxGeometry x="252" y="370" width="98" height="30" as="geometry" />
        </mxCell>
        <mxCell id="-9y2TZHUYbNgIjsQiLxk-40" value="&lt;font style=&quot;font-size: 8px;&quot;&gt;Object Type: Table&lt;/font&gt;&lt;div&gt;&lt;br&gt;&lt;/div&gt;" style="text;html=1;align=center;verticalAlign=middle;whiteSpace=wrap;rounded=0;" parent="1" vertex="1">
          <mxGeometry x="393" y="350" width="98" height="20" as="geometry" />
        </mxCell>
        <mxCell id="-9y2TZHUYbNgIjsQiLxk-41" value="&lt;font style=&quot;font-size: 8px;&quot;&gt;Load: Batch / Full&lt;/font&gt;&lt;div&gt;&lt;br&gt;&lt;/div&gt;" style="text;html=1;align=center;verticalAlign=middle;whiteSpace=wrap;rounded=0;" parent="1" vertex="1">
          <mxGeometry x="395" y="370" width="98" height="30" as="geometry" />
        </mxCell>
        <mxCell id="-9y2TZHUYbNgIjsQiLxk-42" value="&lt;font style=&quot;font-size: 8px;&quot;&gt;Object Type: Views&lt;/font&gt;&lt;div&gt;&lt;br&gt;&lt;/div&gt;" style="text;html=1;align=center;verticalAlign=middle;whiteSpace=wrap;rounded=0;" parent="1" vertex="1">
          <mxGeometry x="533" y="350" width="98" height="20" as="geometry" />
        </mxCell>
        <mxCell id="-9y2TZHUYbNgIjsQiLxk-43" value="&lt;font style=&quot;font-size: 8px;&quot;&gt;Load: None&lt;/font&gt;&lt;div&gt;&lt;br&gt;&lt;/div&gt;" style="text;html=1;align=center;verticalAlign=middle;whiteSpace=wrap;rounded=0;" parent="1" vertex="1">
          <mxGeometry x="532" y="370" width="98" height="30" as="geometry" />
        </mxCell>
        <mxCell id="-9y2TZHUYbNgIjsQiLxk-44" value="Bi &amp;amp; Reporing" style="shadow=0;dashed=0;html=1;strokeColor=none;fillColor=#EF8F21;labelPosition=center;verticalLabelPosition=bottom;verticalAlign=top;align=center;outlineConnect=0;shape=mxgraph.veeam.2d.veeam_one_reporter;" parent="1" vertex="1">
          <mxGeometry x="716" y="90" width="44.8" height="44.8" as="geometry" />
        </mxCell>
        <mxCell id="-9y2TZHUYbNgIjsQiLxk-45" value="" style="shape=mxgraph.sap.icon;labelPosition=center;verticalLabelPosition=bottom;align=center;verticalAlign=top;strokeWidth=1;strokeColor=#D5DADD;fillColor=#EDEFF0;gradientColor=#FCFCFC;gradientDirection=west;aspect=fixed;SAPIcon=Application_Vulnerability_Report" parent="1" vertex="1">
          <mxGeometry x="711" y="185" width="50" height="50" as="geometry" />
        </mxCell>
        <mxCell id="-9y2TZHUYbNgIjsQiLxk-46" value="&lt;div&gt;&lt;br&gt;&lt;/div&gt;Machine Learning" style="sketch=0;outlineConnect=0;fontColor=#232F3E;gradientColor=none;fillColor=#7AA116;strokeColor=none;dashed=0;verticalLabelPosition=bottom;verticalAlign=top;align=center;html=1;fontSize=12;fontStyle=0;aspect=fixed;pointerEvents=1;shape=mxgraph.aws4.iot_greengrass_component_machine_learning;" parent="1" vertex="1">
          <mxGeometry x="720" y="290" width="40" height="40" as="geometry" />
        </mxCell>
      </root>
    </mxGraphModel>
  </diagram>
</mxfile>
